<svg width="12" height="12" viewBox="0 0 12 12" fill="none" xmlns="http://www.w3.org/2000/svg">
<path d="M10.8251 8.8328L7.97867 5.988L10.8235 3.1432C11.3707 2.5976 11.3707 1.7096 10.8235 1.164C10.2763 0.613601 9.39147 0.615201 8.84428 1.1624L5.99787 4.0072L3.15147 1.1592C2.60427 0.612001 1.71787 0.615201 1.17067 1.1592C0.625075 1.7064 0.625075 2.5944 1.17067 3.14L4.01867 5.988L1.17707 8.828C0.629875 9.3752 0.629875 10.2632 1.17707 10.8072C1.45067 11.0824 1.80747 11.2184 2.16587 11.2184C2.52587 11.2184 2.88267 11.0824 3.15627 10.8088L5.99787 7.9672L8.84587 10.8136C9.11948 11.0872 9.47627 11.2232 9.83467 11.2232C10.1931 11.2232 10.5515 11.0856 10.8251 10.8136C11.3723 10.2664 11.3723 9.38 10.8251 8.8328Z" fill="#029F59"/>
</svg>
