<svg width="16" height="16" viewBox="0 0 16 16" fill="none" xmlns="http://www.w3.org/2000/svg">
<path d="M7.99972 0C4.75201 0 2.1095 2.64251 2.1095 5.89056C2.1095 6.73777 2.2829 7.54667 2.62464 8.29499C4.09736 11.5176 6.92097 14.9201 7.75149 15.886C7.81371 15.9582 7.90443 15.9998 7.99989 15.9998C8.09535 15.9998 8.18607 15.9582 8.24829 15.886C9.07848 14.9203 11.9021 11.518 13.3753 8.29499C13.7172 7.54667 13.8904 6.73777 13.8904 5.89056C13.8901 2.64251 11.2476 0 7.99972 0ZM7.99972 8.95013C6.31266 8.95013 4.93999 7.57746 4.93999 5.89039C4.93999 4.20317 6.31266 2.83049 7.99972 2.83049C9.68679 2.83049 11.0595 4.20317 11.0595 5.89039C11.0596 7.57746 9.68695 8.95013 7.99972 8.95013Z" fill="#029F59"/>
</svg>
