<svg width="42" height="57" viewBox="0 0 42 57" fill="none" xmlns="http://www.w3.org/2000/svg">
<path d="M20.9997 50.8333C22.5644 50.8333 23.8335 52.1016 23.8336 53.6663C23.8336 55.2311 22.5645 56.5002 20.9997 56.5002C19.435 56.5001 18.1667 55.231 18.1667 53.6663C18.1668 52.1017 19.4351 50.8334 20.9997 50.8333Z" fill="#029F59" stroke="white"/>
<path fill-rule="evenodd" clip-rule="evenodd" d="M23.5622 42.7637C24.1686 42.0816 24.994 41.641 25.8818 41.4296C35.1255 39.2289 42 30.9173 42 21C42 9.40202 32.598 0 21 0C9.40202 0 0 9.40202 0 21C0 30.9173 6.87452 39.2289 16.1182 41.4296C17.006 41.641 17.8314 42.0816 18.4378 42.7637L19.2877 43.7196C19.6477 44.1245 19.9217 44.5984 20.093 45.1124L21 47.8333L21.907 45.1124C22.0783 44.5984 22.3523 44.1245 22.7123 43.7196L23.5622 42.7637Z" fill="#029F59"/>
<circle cx="21" cy="22" r="5" fill="#FFF9F9"/>
</svg>
