<svg width="41" height="39" viewBox="0 0 41 39" fill="none" xmlns="http://www.w3.org/2000/svg">
<path d="M39.1244 14.1267L21.8271 0.512499C20.9005 -0.204036 19.562 -0.204036 18.6354 0.512499L11.4281 6.04006C11.1193 4.91407 10.1926 4.19754 8.9571 4.19754C7.51566 4.19754 6.3831 5.32352 6.3831 6.75659V9.92982L1.02917 14.0243C-0.10339 14.8432 -0.30931 16.481 0.514371 17.607C1.02917 18.2212 1.74989 18.6306 2.57357 18.6306C3.08837 18.6306 3.70613 18.4259 4.11797 18.1188L20.1798 5.83533L35.8297 18.1188C36.9622 19.0401 38.6096 18.8353 39.4333 17.7093C40.3599 16.5834 40.257 14.9456 39.1244 14.1267Z" fill="white"/>
<path d="M12.7671 26.4095C12.7671 27.8426 13.8996 28.9686 15.3411 28.9686H18.8417V22.9292H12.7671V26.4095Z" fill="white"/>
<path d="M27.6963 16.685C27.6963 15.252 26.5637 14.126 25.1223 14.126H21.6216V20.1653H27.6963V16.685Z" fill="white"/>
<path d="M18.9446 14.126H15.444C14.0026 14.126 12.87 15.252 12.87 16.685V20.1653H18.9446V14.126Z" fill="white"/>
<path d="M7.31014 30.2993C7.10422 30.4017 6.8983 30.504 6.69238 30.504C6.79534 31.0158 6.8983 31.4253 7.10422 31.9371C9.06046 37.4647 15.2381 40.3308 20.7979 38.3859C21.0038 38.2836 21.2098 38.1812 21.4157 38.1812C21.3127 37.6694 21.2098 37.2599 21.0038 36.7481C19.0476 31.2206 12.9729 28.3544 7.31014 30.2993Z" fill="#03B766"/>
<path d="M36.9627 22.1102C28.5199 22.1102 21.6216 28.9685 21.6216 37.3622C21.6216 37.5669 21.6216 37.7716 21.6216 37.9764L31.2999 29.685L22.1364 38.3858C22.6512 38.4882 23.166 38.4882 23.7838 38.4882C32.2265 38.4882 39.1248 31.6299 39.1248 23.2362C39.1248 22.9291 39.1248 22.622 39.1248 22.315C38.4041 22.2126 37.6834 22.1102 36.9627 22.1102Z" fill="#03B766"/>
<path d="M27.6963 22.9292H21.6216V28.9686C22.9601 26.4095 25.1223 24.2599 27.6963 22.9292Z" fill="white"/>
</svg>
