<svg width="41" height="39" viewBox="0 0 41 39" fill="none" xmlns="http://www.w3.org/2000/svg">
<path d="M39.1245 14.1267L21.8272 0.512499C20.9005 -0.204036 19.5621 -0.204036 18.6354 0.512499L11.4282 6.04006C11.1193 4.91407 10.1927 4.19754 8.95716 4.19754C7.51572 4.19754 6.38316 5.32352 6.38316 6.75659V9.92982L1.02923 14.0243C-0.103329 14.8432 -0.309249 16.481 0.514432 17.607C1.02923 18.2212 1.74995 18.6306 2.57363 18.6306C3.08843 18.6306 3.7062 18.4259 4.11804 18.1188L20.1798 5.83533L35.8297 18.1188C36.9623 19.0401 38.6097 18.8353 39.4333 17.7093C40.36 16.5834 40.257 14.9456 39.1245 14.1267Z" fill="#254741"/>
<path d="M12.7671 26.4095C12.7671 27.8426 13.8997 28.9686 15.3411 28.9686H18.8417V22.9292H12.7671V26.4095Z" fill="#254741"/>
<path d="M27.6962 16.685C27.6962 15.252 26.5637 14.126 25.1222 14.126H21.6216V20.1653H27.6962V16.685Z" fill="#254741"/>
<path d="M18.9448 14.126H15.4441C14.0027 14.126 12.8701 15.252 12.8701 16.685V20.1653H18.9448V14.126Z" fill="#254741"/>
<path d="M7.31014 30.2992C7.10422 30.4015 6.8983 30.5039 6.69238 30.5039C6.79534 31.0157 6.8983 31.4252 7.10422 31.937C9.06046 37.4645 15.2381 40.3307 20.7979 38.3858C21.0038 38.2834 21.2098 38.1811 21.4157 38.1811C21.3127 37.6693 21.2098 37.2598 21.0038 36.748C19.0476 31.2204 12.9729 28.3543 7.31014 30.2992Z" fill="#03B766"/>
<path d="M36.9626 22.1104C28.5199 22.1104 21.6216 28.9686 21.6216 37.3623C21.6216 37.567 21.6216 37.7718 21.6216 37.9765L31.2998 29.6852L22.1364 38.3859C22.6512 38.4883 23.166 38.4883 23.7837 38.4883C32.2265 38.4883 39.1248 31.63 39.1248 23.2363C39.1248 22.9292 39.1248 22.6222 39.1248 22.3151C38.4041 22.2127 37.6834 22.1104 36.9626 22.1104Z" fill="#03B766"/>
<path d="M27.6962 22.9292H21.6216V28.9686C22.9601 26.4095 25.1222 24.2599 27.6962 22.9292Z" fill="#254741"/>
</svg>
